<svg width="696" height="120" viewBox="0 0 696 120" fill="none" xmlns="http://www.w3.org/2000/svg">
<path d="M67.7741 39.1992V45H51.1023V39.1992H67.7741ZM53.7878 13.7188V45H46.2468V13.7188H53.7878ZM65.6257 26.1367V31.7441H51.1023V26.1367H65.6257ZM67.8386 13.7188V19.541H51.1023V13.7188H67.8386ZM85.7325 16.3828H93.5528C95.4434 16.3828 97.1837 16.6908 98.7735 17.3066C100.363 17.9225 101.746 18.8034 102.92 19.9492C104.094 21.0951 105.004 22.4772 105.649 24.0957C106.293 25.7142 106.615 27.5332 106.615 29.5527C106.615 31.5007 106.293 33.2624 105.649 34.8379C105.004 36.4134 104.094 37.7598 102.92 38.877C101.746 39.9941 100.363 40.8535 98.7735 41.4551C97.1837 42.0423 95.4434 42.3359 93.5528 42.3359H85.7325C83.8276 42.3359 82.073 42.0423 80.4688 41.4551C78.8647 40.8535 77.4682 40.0013 76.2794 38.8984C75.1049 37.7812 74.1882 36.4421 73.5294 34.8809C72.8848 33.3053 72.5626 31.5436 72.5626 29.5957C72.5626 27.5762 72.8848 25.7572 73.5294 24.1387C74.1882 22.5202 75.1049 21.1309 76.2794 19.9707C77.4682 18.8105 78.8647 17.9225 80.4688 17.3066C82.073 16.6908 83.8276 16.3828 85.7325 16.3828ZM85.7325 22.4414C84.5867 22.4414 83.5554 22.6992 82.6387 23.2148C81.7221 23.7305 80.9988 24.5182 80.4688 25.5781C79.9389 26.6237 79.6739 27.9629 79.6739 29.5957C79.6739 30.7272 79.8315 31.7155 80.1466 32.5605C80.4617 33.4056 80.8985 34.1003 81.4571 34.6445C82.0157 35.1888 82.6602 35.597 83.3907 35.8691C84.1212 36.1413 84.9018 36.2773 85.7325 36.2773H93.5958C94.713 36.2773 95.7156 36.0339 96.6036 35.5469C97.4916 35.0456 98.1934 34.2936 98.7091 33.291C99.239 32.2884 99.504 31.0423 99.504 29.5527C99.504 28.3353 99.3536 27.2826 99.0528 26.3945C98.752 25.5065 98.3295 24.7689 97.7852 24.1816C97.2553 23.5944 96.6322 23.1576 95.9161 22.8711C95.1999 22.5846 94.4265 22.4414 93.5958 22.4414H85.7325ZM93.252 12.4297V46.2891H86.0118V12.4297H93.252ZM134.542 39.1992V45H117.871V39.1992H134.542ZM120.556 13.7188V45H113.015V13.7188H120.556ZM132.394 26.1367V31.7441H117.871V26.1367H132.394ZM134.607 13.7188V19.541H117.871V13.7188H134.607ZM147.753 13.7188V45H140.233V13.7188H147.753ZM165.8 13.7188L154.563 32.625H146.442L145.54 25.8145H150.675L156.69 13.7188H165.8ZM157.979 45L150.653 31.3145L156.132 26.2656L166.874 45H157.979ZM186.551 13.7188V45H179.01V13.7188H186.551ZM195.961 13.7188V19.541H169.815V13.7188H195.961ZM208.914 33.4629L220.15 13.7188H227.691V45H220.15V25.2773L208.914 45H201.373V13.7188H208.914V33.4629ZM247.712 31.7012H239.655L239.612 26.7598H246.143C247.318 26.7598 248.256 26.6309 248.958 26.373C249.66 26.1009 250.168 25.707 250.483 25.1914C250.813 24.6758 250.977 24.0312 250.977 23.2578C250.977 22.3698 250.813 21.6536 250.483 21.1094C250.154 20.5651 249.631 20.1712 248.915 19.9277C248.213 19.6699 247.304 19.541 246.186 19.541H242.491V45H234.95V13.7188H246.186C248.12 13.7188 249.846 13.8978 251.364 14.2559C252.882 14.5996 254.171 15.1296 255.231 15.8457C256.306 16.5618 257.122 17.4642 257.681 18.5527C258.239 19.627 258.518 20.8945 258.518 22.3555C258.518 23.6302 258.246 24.8262 257.702 25.9434C257.158 27.0605 256.248 27.9701 254.974 28.6719C253.713 29.3594 251.987 29.7174 249.796 29.7461L247.712 31.7012ZM247.411 45H237.829L240.407 39.1992H247.411C248.442 39.1992 249.266 39.0417 249.882 38.7266C250.512 38.3971 250.963 37.9674 251.235 37.4375C251.522 36.8932 251.665 36.2917 251.665 35.6328C251.665 34.8307 251.529 34.1361 251.257 33.5488C250.999 32.9616 250.584 32.5104 250.011 32.1953C249.438 31.8659 248.671 31.7012 247.712 31.7012H241.374L241.417 26.7598H249.001L250.763 28.7363C252.854 28.6504 254.508 28.944 255.725 29.6172C256.957 30.2904 257.838 31.1784 258.368 32.2812C258.898 33.3841 259.163 34.5371 259.163 35.7402C259.163 37.7884 258.719 39.5 257.831 40.875C256.957 42.25 255.647 43.2812 253.899 43.9688C252.152 44.6562 249.989 45 247.411 45ZM287.069 26.1367V31.9375H271.02V26.1367H287.069ZM273.533 13.7188V45H265.992V13.7188H273.533ZM292.139 13.7188V45H284.619V13.7188H292.139ZM307.584 13.7188V45H300.064V13.7188H307.584ZM341.61 34.3867H333.832V28.5645H341.61C342.67 28.5645 343.529 28.3854 344.188 28.0273C344.847 27.6693 345.326 27.1751 345.627 26.5449C345.942 25.9004 346.1 25.1771 346.1 24.375C346.1 23.5156 345.942 22.7207 345.627 21.9902C345.326 21.2598 344.847 20.6725 344.188 20.2285C343.529 19.7702 342.67 19.541 341.61 19.541H336.668V45H329.127V13.7188H341.61C344.116 13.7188 346.272 14.1771 348.076 15.0938C349.895 16.0104 351.292 17.2708 352.266 18.875C353.24 20.4648 353.727 22.2839 353.727 24.332C353.727 26.3516 353.24 28.1133 352.266 29.6172C351.292 31.1211 349.895 32.2956 348.076 33.1406C346.272 33.9714 344.116 34.3867 341.61 34.3867ZM368.441 13.7188V45H360.922V13.7188H368.441ZM376.216 13.7188H383.778V39.1992H391.556V13.7188H399.097V39.1992H406.767V13.7188H414.286V45H376.216V13.7188ZM443.094 39.1992V45H426.422V39.1992H443.094ZM429.108 13.7188V45H421.567V13.7188H429.108ZM440.946 26.1367V31.7441H426.422V26.1367H440.946ZM443.159 13.7188V19.541H426.422V13.7188H443.159ZM469.904 26.1367V31.9375H453.855V26.1367H469.904ZM456.369 13.7188V45H448.828V13.7188H456.369ZM474.974 13.7188V45H467.455V13.7188H474.974ZM503.482 26.1367V31.9375H487.433V26.1367H503.482ZM489.946 13.7188V45H482.405V13.7188H489.946ZM508.552 13.7188V45H501.032V13.7188H508.552ZM532.268 34.0215H523.911L521.676 33.0977C519.127 32.2956 517.186 31.1068 515.854 29.5312C514.522 27.9414 513.856 25.9147 513.856 23.4512C513.856 21.3027 514.336 19.5124 515.295 18.0801C516.255 16.6335 517.616 15.5449 519.377 14.8145C521.139 14.084 523.23 13.7188 525.651 13.7188H536.995V45H529.432V19.541H525.651C524.147 19.541 523.058 19.9349 522.385 20.7227C521.712 21.4961 521.375 22.6276 521.375 24.1172C521.375 25.263 521.533 26.1654 521.848 26.8242C522.178 27.4831 522.657 27.9557 523.288 28.2422C523.918 28.5143 524.706 28.6504 525.651 28.6504H532.225L532.268 34.0215ZM526.467 31.207L519.829 45H511.622L518.174 31.207H526.467ZM582.321 39.1992V45H560.343V39.1992H582.321ZM562.835 39.1992V52.6699H555.853L555.337 39.1992H562.835ZM587.456 39.1992L586.661 52.6914H579.894V39.1992H587.456ZM579.034 13.7188V19.541H563.329V13.7188H579.034ZM584.105 13.7188V45H576.607V13.7188H584.105ZM562.835 13.7188H570.355L569.431 26.5449C569.273 28.7363 569.023 30.6413 568.679 32.2598C568.335 33.8783 567.927 35.2747 567.454 36.4492C566.982 37.6237 566.466 38.6335 565.907 39.4785C565.349 40.3236 564.762 41.0612 564.146 41.6914C563.544 42.3216 562.943 42.8945 562.341 43.4102C561.739 43.9258 561.159 44.4557 560.601 45H556.025V39.1992H557.529C557.973 38.8841 558.417 38.4616 558.861 37.9316C559.319 37.3874 559.749 36.6497 560.15 35.7188C560.551 34.7878 560.902 33.5775 561.202 32.0879C561.503 30.5983 561.732 28.7507 561.89 26.5449L562.835 13.7188ZM614.266 13.7188V19.541H598.11V13.7188H614.266ZM619.358 13.7188V45H611.817V13.7188H619.358ZM597.594 13.7188H605.092L604.276 29.6172C604.147 32.0234 603.903 34.1003 603.545 35.8477C603.187 37.5807 602.708 39.0417 602.106 40.2305C601.504 41.4049 600.781 42.3431 599.936 43.0449C599.091 43.7467 598.11 44.248 596.993 44.5488C595.89 44.8496 594.651 45 593.276 45H591.45V39.1992L592.266 39.1133C592.925 39.0417 593.505 38.8626 594.006 38.5762C594.508 38.2754 594.937 37.8314 595.295 37.2441C595.668 36.6569 595.976 35.9049 596.219 34.9883C596.463 34.0716 596.656 32.9616 596.799 31.6582C596.957 30.3405 597.064 28.8008 597.122 27.0391L597.594 13.7188ZM642.988 34.0215H634.631L632.396 33.0977C629.847 32.2956 627.906 31.1068 626.574 29.5312C625.242 27.9414 624.576 25.9147 624.576 23.4512C624.576 21.3027 625.056 19.5124 626.016 18.0801C626.975 16.6335 628.336 15.5449 630.098 14.8145C631.859 14.084 633.95 13.7188 636.371 13.7188H647.715V45H640.152V19.541H636.371C634.867 19.541 633.779 19.9349 633.105 20.7227C632.432 21.4961 632.096 22.6276 632.096 24.1172C632.096 25.263 632.253 26.1654 632.568 26.8242C632.898 27.4831 633.377 27.9557 634.008 28.2422C634.638 28.5143 635.426 28.6504 636.371 28.6504H642.945L642.988 34.0215ZM637.187 31.207L630.549 45H622.342L628.894 31.207H637.187ZM157.719 91.7012H149.662L149.619 86.7598H156.151C157.325 86.7598 158.263 86.6309 158.965 86.373C159.667 86.1009 160.175 85.707 160.49 85.1914C160.82 84.6758 160.985 84.0312 160.985 83.2578C160.985 82.3698 160.82 81.6536 160.49 81.1094C160.161 80.5651 159.638 80.1712 158.922 79.9277C158.22 79.6699 157.311 79.541 156.194 79.541H152.498V105H144.957V73.7188H156.194C158.127 73.7188 159.853 73.8978 161.371 74.2559C162.889 74.5996 164.179 75.1296 165.238 75.8457C166.313 76.5618 167.129 77.4642 167.688 78.5527C168.246 79.627 168.526 80.8945 168.526 82.3555C168.526 83.6302 168.253 84.8262 167.709 85.9434C167.165 87.0605 166.255 87.9701 164.981 88.6719C163.72 89.3594 161.994 89.7174 159.803 89.7461L157.719 91.7012ZM157.418 105H147.836L150.414 99.1992H157.418C158.449 99.1992 159.273 99.0417 159.889 98.7266C160.519 98.3971 160.97 97.9674 161.242 97.4375C161.529 96.8932 161.672 96.2917 161.672 95.6328C161.672 94.8307 161.536 94.1361 161.264 93.5488C161.006 92.9616 160.591 92.5104 160.018 92.1953C159.445 91.8659 158.679 91.7012 157.719 91.7012H151.381L151.424 86.7598H159.008L160.77 88.7363C162.861 88.6504 164.515 88.944 165.733 89.6172C166.964 90.2904 167.845 91.1784 168.375 92.2812C168.905 93.3841 169.17 94.5371 169.17 95.7402C169.17 97.7884 168.726 99.5 167.838 100.875C166.964 102.25 165.654 103.281 163.906 103.969C162.159 104.656 159.996 105 157.418 105ZM189.255 80.293L181.628 105H173.529L185.023 73.7188H190.158L189.255 80.293ZM195.572 105L187.923 80.293L186.935 73.7188H192.134L203.693 105H195.572ZM195.271 93.334V99.1562H179.222V93.334H195.271ZM208.46 73.7188H216.022V99.1992H223.8V73.7188H231.341V99.1992H239.011V73.7188H246.53V105H208.46V73.7188ZM280.28 88.7363V90.0039C280.28 92.3958 279.943 94.5443 279.27 96.4492C278.611 98.3398 277.673 99.9583 276.455 101.305C275.238 102.637 273.798 103.661 272.137 104.377C270.475 105.079 268.642 105.43 266.637 105.43C264.617 105.43 262.77 105.079 261.094 104.377C259.433 103.661 257.986 102.637 256.754 101.305C255.537 99.9583 254.591 98.3398 253.918 96.4492C253.259 94.5443 252.93 92.3958 252.93 90.0039V88.7363C252.93 86.3444 253.259 84.196 253.918 82.291C254.591 80.3861 255.53 78.7676 256.733 77.4355C257.95 76.0892 259.39 75.0651 261.051 74.3633C262.727 73.6471 264.574 73.2891 266.594 73.2891C268.599 73.2891 270.433 73.6471 272.094 74.3633C273.77 75.0651 275.216 76.0892 276.434 77.4355C277.651 78.7676 278.597 80.3861 279.27 82.291C279.943 84.196 280.28 86.3444 280.28 88.7363ZM272.631 90.0039V88.6934C272.631 87.1465 272.495 85.7858 272.223 84.6113C271.965 83.4225 271.578 82.4271 271.063 81.625C270.547 80.8229 269.91 80.2214 269.151 79.8203C268.406 79.4049 267.554 79.1973 266.594 79.1973C265.591 79.1973 264.718 79.4049 263.973 79.8203C263.228 80.2214 262.605 80.8229 262.104 81.625C261.602 82.4271 261.223 83.4225 260.965 84.6113C260.722 85.7858 260.6 87.1465 260.6 88.6934V90.0039C260.6 91.5365 260.722 92.8971 260.965 94.0859C261.223 95.2604 261.602 96.2559 262.104 97.0723C262.619 97.8887 263.25 98.5046 263.994 98.9199C264.753 99.3353 265.634 99.543 266.637 99.543C267.597 99.543 268.449 99.3353 269.194 98.9199C269.938 98.5046 270.561 97.8887 271.063 97.0723C271.578 96.2559 271.965 95.2604 272.223 94.0859C272.495 92.8971 272.631 91.5365 272.631 90.0039ZM307.906 73.7188V79.541H294.306V105H286.787V73.7188H307.906ZM339.013 88.7363V90.0039C339.013 92.3958 338.676 94.5443 338.003 96.4492C337.344 98.3398 336.406 99.9583 335.188 101.305C333.971 102.637 332.532 103.661 330.87 104.377C329.209 105.079 327.375 105.43 325.37 105.43C323.351 105.43 321.503 105.079 319.827 104.377C318.166 103.661 316.719 102.637 315.487 101.305C314.27 99.9583 313.324 98.3398 312.651 96.4492C311.992 94.5443 311.663 92.3958 311.663 90.0039V88.7363C311.663 86.3444 311.992 84.196 312.651 82.291C313.324 80.3861 314.263 78.7676 315.466 77.4355C316.683 76.0892 318.123 75.0651 319.784 74.3633C321.46 73.6471 323.308 73.2891 325.327 73.2891C327.332 73.2891 329.166 73.6471 330.827 74.3633C332.503 75.0651 333.949 76.0892 335.167 77.4355C336.384 78.7676 337.33 80.3861 338.003 82.291C338.676 84.196 339.013 86.3444 339.013 88.7363ZM331.364 90.0039V88.6934C331.364 87.1465 331.228 85.7858 330.956 84.6113C330.698 83.4225 330.311 82.4271 329.796 81.625C329.28 80.8229 328.643 80.2214 327.884 79.8203C327.139 79.4049 326.287 79.1973 325.327 79.1973C324.324 79.1973 323.451 79.4049 322.706 79.8203C321.961 80.2214 321.338 80.8229 320.837 81.625C320.336 82.4271 319.956 83.4225 319.698 84.6113C319.455 85.7858 319.333 87.1465 319.333 88.6934V90.0039C319.333 91.5365 319.455 92.8971 319.698 94.0859C319.956 95.2604 320.336 96.2559 320.837 97.0723C321.352 97.8887 321.983 98.5046 322.727 98.9199C323.487 99.3353 324.367 99.543 325.37 99.543C326.33 99.543 327.182 99.3353 327.927 98.9199C328.671 98.5046 329.295 97.8887 329.796 97.0723C330.311 96.2559 330.698 95.2604 330.956 94.0859C331.228 92.8971 331.364 91.5365 331.364 90.0039ZM380.279 73.7188V79.541H366.679V105H359.16V73.7188H380.279ZM363.886 84.4824H370.611C373.146 84.4824 375.352 84.9049 377.228 85.75C379.105 86.5951 380.551 87.7767 381.568 89.2949C382.599 90.8132 383.115 92.5892 383.115 94.623C383.115 96.1556 382.821 97.5592 382.234 98.834C381.647 100.094 380.802 101.19 379.699 102.121C378.61 103.038 377.3 103.747 375.767 104.248C374.235 104.749 372.516 105 370.611 105H359.181V73.7188H366.744V99.1992H370.611C371.685 99.1992 372.588 98.9915 373.318 98.5762C374.063 98.1608 374.629 97.6094 375.015 96.9219C375.402 96.2201 375.595 95.4395 375.595 94.5801C375.595 93.7493 375.402 93.0117 375.015 92.3672C374.629 91.7227 374.063 91.2142 373.318 90.8418C372.588 90.4694 371.685 90.2832 370.611 90.2832H363.886V84.4824ZM397.314 73.7188V105H389.794V73.7188H397.314ZM417.957 90.0254H412.565V86.2441H416.561C417.492 86.2441 418.244 86.0938 418.817 85.793C419.39 85.4779 419.812 85.0339 420.084 84.4609C420.357 83.8737 420.493 83.1862 420.493 82.3984C420.493 81.8112 420.335 81.2669 420.02 80.7656C419.719 80.2643 419.254 79.8633 418.623 79.5625C417.993 79.2617 417.191 79.1113 416.217 79.1113C415.472 79.1113 414.792 79.2331 414.176 79.4766C413.56 79.7201 413.073 80.0781 412.715 80.5508C412.357 81.0091 412.178 81.582 412.178 82.2695H404.659C404.659 80.8659 404.967 79.6126 405.582 78.5098C406.198 77.4069 407.036 76.4688 408.096 75.6953C409.17 74.9219 410.402 74.3346 411.791 73.9336C413.195 73.5182 414.67 73.3105 416.217 73.3105C418.008 73.3105 419.626 73.5039 421.073 73.8906C422.519 74.263 423.758 74.8216 424.789 75.5664C425.835 76.3112 426.637 77.2422 427.196 78.3594C427.754 79.4622 428.034 80.7441 428.034 82.2051C428.034 83.2793 427.79 84.2891 427.303 85.2344C426.83 86.1797 426.15 87.0104 425.262 87.7266C424.374 88.4427 423.307 89.0085 422.061 89.4238C420.829 89.8249 419.461 90.0254 417.957 90.0254ZM412.565 88.1133H417.957C419.633 88.1133 421.123 88.2923 422.426 88.6504C423.73 89.0085 424.832 89.5312 425.735 90.2188C426.651 90.9062 427.346 91.7585 427.819 92.7754C428.291 93.778 428.528 94.931 428.528 96.2344C428.528 97.6953 428.22 98.9987 427.604 100.145C427.002 101.276 426.15 102.236 425.047 103.023C423.944 103.811 422.641 104.406 421.137 104.807C419.648 105.208 418.008 105.408 416.217 105.408C414.771 105.408 413.331 105.236 411.899 104.893C410.481 104.535 409.192 103.99 408.032 103.26C406.871 102.529 405.941 101.591 405.239 100.445C404.551 99.2995 404.207 97.9245 404.207 96.3203H411.77C411.77 96.9505 411.956 97.5163 412.329 98.0176C412.715 98.5189 413.245 98.9128 413.918 99.1992C414.592 99.4857 415.358 99.6289 416.217 99.6289C417.22 99.6289 418.072 99.4714 418.774 99.1562C419.49 98.8411 420.034 98.4115 420.407 97.8672C420.779 97.3229 420.965 96.7214 420.965 96.0625C420.965 95.2891 420.872 94.6374 420.686 94.1074C420.5 93.5632 420.22 93.1263 419.848 92.7969C419.476 92.4531 419.01 92.2096 418.452 92.0664C417.907 91.9089 417.277 91.8301 416.561 91.8301H412.565V88.1133ZM456.691 86.1367V91.9375H440.642V86.1367H456.691ZM443.156 73.7188V105H435.615V73.7188H443.156ZM461.761 73.7188V105H454.242V73.7188H461.761ZM490.72 99.1992V105H474.048V99.1992H490.72ZM476.734 73.7188V105H469.193V73.7188H476.734ZM488.571 86.1367V91.7441H474.048V86.1367H488.571ZM490.784 73.7188V79.541H474.048V73.7188H490.784ZM514.243 94.4082H521.762C521.662 96.5853 521.075 98.5046 520 100.166C518.926 101.827 517.437 103.124 515.532 104.055C513.641 104.971 511.407 105.43 508.829 105.43C506.737 105.43 504.868 105.079 503.221 104.377C501.588 103.675 500.199 102.665 499.053 101.348C497.922 100.03 497.055 98.4329 496.454 96.5566C495.866 94.6803 495.573 92.5677 495.573 90.2188V88.5215C495.573 86.1725 495.881 84.0599 496.497 82.1836C497.127 80.293 498.015 78.6888 499.161 77.3711C500.321 76.0391 501.71 75.0221 503.329 74.3203C504.947 73.6185 506.745 73.2676 508.721 73.2676C511.443 73.2676 513.741 73.7546 515.618 74.7285C517.494 75.7025 518.948 77.0417 519.979 78.7461C521.01 80.4362 521.619 82.3626 521.805 84.5254H514.286C514.257 83.3509 514.056 82.3698 513.684 81.582C513.312 80.7799 512.724 80.1784 511.922 79.7773C511.12 79.3763 510.053 79.1758 508.721 79.1758C507.79 79.1758 506.981 79.3477 506.293 79.6914C505.606 80.0352 505.033 80.5794 504.575 81.3242C504.116 82.069 503.773 83.0358 503.543 84.2246C503.329 85.3991 503.221 86.8171 503.221 88.4785V90.2188C503.221 91.8802 503.321 93.2982 503.522 94.4727C503.722 95.6471 504.045 96.6068 504.489 97.3516C504.933 98.0964 505.506 98.6478 506.207 99.0059C506.924 99.3496 507.797 99.5215 508.829 99.5215C509.974 99.5215 510.941 99.3424 511.729 98.9844C512.517 98.612 513.125 98.0534 513.555 97.3086C513.985 96.5495 514.214 95.5827 514.243 94.4082ZM537.873 93.2051L545.264 73.7188H553.234L542.685 98.5332C542.284 99.4499 541.819 100.324 541.289 101.154C540.773 101.985 540.157 102.723 539.441 103.367C538.739 104.012 537.909 104.52 536.949 104.893C535.989 105.265 534.865 105.451 533.576 105.451C533.261 105.451 532.874 105.444 532.416 105.43C531.972 105.43 531.585 105.423 531.256 105.408L531.127 99.5645C531.313 99.6074 531.571 99.6361 531.9 99.6504C532.23 99.6504 532.466 99.6504 532.609 99.6504C533.469 99.6504 534.149 99.5501 534.65 99.3496C535.152 99.1348 535.545 98.8197 535.832 98.4043C536.133 97.9746 536.391 97.4303 536.605 96.7715L537.873 93.2051ZM533.683 73.7188L540.086 87.2969L542.535 95.9766H537.121L525.67 73.7188H533.683Z" fill="white"/>
</svg>
