<svg width="232" height="129" viewBox="0 0 232 129" fill="none" xmlns="http://www.w3.org/2000/svg">
<path d="M18.09 81L18.06 71.58L13.44 79.17H11.31L6.72 71.88V81H2.31V63.75H6.27L12.45 73.77L18.48 63.75H22.47L22.53 81H18.09ZM41.0145 77.37V81H27.1245V63.75H40.6845V67.38H31.8045V70.53H39.6645V73.98H31.8045V77.37H41.0145ZM58.3582 77.37V81H44.4682V63.75H58.0282V67.38H49.1482V70.53H57.0082V73.98H49.1482V77.37H58.3582ZM65.052 67.44H59.622V63.75H75.222V67.44H69.792V81H65.052V67.44ZM94.5877 81.33C92.7477 81.33 91.0877 80.95 89.6077 80.19C88.1477 79.41 86.9977 78.34 86.1577 76.98C85.3177 75.62 84.8977 74.09 84.8977 72.39C84.8977 70.69 85.3177 69.16 86.1577 67.8C86.9977 66.42 88.1477 65.35 89.6077 64.59C91.0877 63.81 92.7477 63.42 94.5877 63.42C96.4277 63.42 98.0777 63.81 99.5377 64.59C101.018 65.35 102.178 66.42 103.018 67.8C103.858 69.16 104.278 70.69 104.278 72.39C104.278 74.09 103.858 75.62 103.018 76.98C102.178 78.34 101.018 79.41 99.5377 80.19C98.0777 80.95 96.4277 81.33 94.5877 81.33ZM94.5877 77.46C95.5077 77.46 96.3377 77.24 97.0777 76.8C97.8377 76.36 98.4277 75.76 98.8477 75C99.2677 74.22 99.4777 73.35 99.4777 72.39C99.4777 71.41 99.2677 70.54 98.8477 69.78C98.4277 69 97.8377 68.39 97.0777 67.95C96.3377 67.51 95.5077 67.29 94.5877 67.29C93.6677 67.29 92.8277 67.51 92.0677 67.95C91.3277 68.39 90.7377 69 90.2977 69.78C89.8777 70.54 89.6677 71.41 89.6677 72.39C89.6677 73.35 89.8777 74.22 90.2977 75C90.7377 75.76 91.3277 76.36 92.0677 76.8C92.8277 77.24 93.6677 77.46 94.5877 77.46ZM115.612 81.33C113.052 81.33 111.052 80.64 109.612 79.26C108.172 77.88 107.452 75.98 107.452 73.56V63.75H112.192V73.41C112.192 74.75 112.482 75.76 113.062 76.44C113.662 77.12 114.532 77.46 115.672 77.46C116.792 77.46 117.642 77.12 118.222 76.44C118.802 75.76 119.092 74.75 119.092 73.41V63.75H123.772V73.56C123.772 75.98 123.052 77.88 121.612 79.26C120.172 80.64 118.172 81.33 115.612 81.33ZM135.849 76.38H132.939V81H128.199V63.75H136.059C138.439 63.75 140.329 64.32 141.729 65.46C143.129 66.58 143.829 68.13 143.829 70.11C143.829 71.37 143.519 72.47 142.899 73.41C142.299 74.33 141.439 75.05 140.319 75.57L144.159 81H139.059L135.849 76.38ZM139.059 70.11C139.059 69.25 138.779 68.59 138.219 68.13C137.659 67.67 136.829 67.44 135.729 67.44H132.939V72.78H135.729C136.829 72.78 137.659 72.55 138.219 72.09C138.779 71.63 139.059 70.97 139.059 70.11ZM159.241 67.44H153.811V63.75H169.411V67.44H163.981V81H159.241V67.44ZM185.741 77.37V81H171.851V63.75H185.411V67.38H176.531V70.53H184.391V73.98H176.531V77.37H185.741ZM200.715 77.58H192.645L191.205 81H186.615L194.355 63.75H199.035L206.805 81H202.125L200.715 77.58ZM199.275 74.16L196.695 67.92L194.085 74.16H199.275ZM224.633 81L224.603 71.58L219.983 79.17H217.853L213.263 71.88V81H208.853V63.75H212.813L218.993 73.77L225.023 63.75H229.013L229.073 81H224.633Z" fill="#333333"/>
<path d="M64.496 26.744C64.416 26.088 64.352 25.376 64.304 24.608C64.272 23.824 64.256 23.096 64.256 22.424C64.256 21.352 64.288 20.328 64.352 19.352C64.432 18.36 64.52 17.328 64.616 16.256C64.728 15.168 64.848 13.992 64.976 12.728C65.104 11.448 65.216 9.976 65.312 8.312C65.52 8.312 65.816 8.376 66.2 8.504C66.6 8.616 67 8.752 67.4 8.912C67.8 9.072 68.152 9.24 68.456 9.416C68.76 9.576 68.936 9.712 68.984 9.824C68.712 10.448 68.464 11.272 68.24 12.296C68.032 13.304 67.856 14.408 67.712 15.608C67.568 16.808 67.456 18.04 67.376 19.304C67.296 20.568 67.256 21.752 67.256 22.856C67.256 23.368 67.264 23.872 67.28 24.368C67.296 24.864 67.32 25.32 67.352 25.736C67.688 25.24 68.072 24.536 68.504 23.624C68.952 22.696 69.408 21.664 69.872 20.528C70.352 19.392 70.824 18.208 71.288 16.976C71.768 15.728 72.208 14.544 72.608 13.424C73.008 12.288 73.344 11.272 73.616 10.376C73.904 9.464 74.104 8.776 74.216 8.312C74.424 8.312 74.728 8.376 75.128 8.504C75.544 8.616 75.944 8.752 76.328 8.912C76.728 9.072 77.08 9.24 77.384 9.416C77.688 9.576 77.856 9.712 77.888 9.824C77.616 10.448 77.368 11.272 77.144 12.296C76.936 13.304 76.76 14.408 76.616 15.608C76.472 16.808 76.36 18.04 76.28 19.304C76.2 20.568 76.16 21.752 76.16 22.856C76.16 23.32 76.16 23.784 76.16 24.248C76.176 24.696 76.2 25.104 76.232 25.472C76.744 24.144 77.272 22.832 77.816 21.536C78.376 20.224 78.928 18.976 79.472 17.792C80.016 16.592 80.544 15.48 81.056 14.456C81.568 13.416 82.04 12.496 82.472 11.696C82.904 10.88 83.28 10.208 83.6 9.68C83.92 9.152 84.168 8.8 84.344 8.624C84.712 8.672 85.088 8.808 85.472 9.032C85.872 9.24 86.224 9.512 86.528 9.848C86.064 10.216 85.536 10.824 84.944 11.672C84.352 12.504 83.744 13.472 83.12 14.576C82.496 15.68 81.864 16.856 81.224 18.104C80.6 19.352 80.016 20.568 79.472 21.752C78.928 22.936 78.44 24.04 78.008 25.064C77.592 26.088 77.272 26.912 77.048 27.536C76.632 27.728 76.224 27.824 75.824 27.824C75.312 27.76 74.824 27.632 74.36 27.44C73.912 27.248 73.592 27.016 73.4 26.744C73.352 26.488 73.312 26.192 73.28 25.856C73.248 25.504 73.224 25.16 73.208 24.824C73.192 24.488 73.176 24.168 73.16 23.864C73.16 23.544 73.16 23.272 73.16 23.048C73.16 21.624 73.216 20.176 73.328 18.704C73.44 17.216 73.576 15.624 73.736 13.928C73.368 15.016 72.96 16.184 72.512 17.432C72.064 18.68 71.592 19.92 71.096 21.152C70.616 22.368 70.12 23.536 69.608 24.656C69.112 25.76 68.624 26.72 68.144 27.536C67.728 27.728 67.32 27.824 66.92 27.824C66.408 27.76 65.92 27.632 65.456 27.44C65.008 27.248 64.688 27.016 64.496 26.744ZM83.4759 25.592C83.4759 25.032 83.5319 24.376 83.6439 23.624C83.7559 22.856 83.9159 22.04 84.1239 21.176C84.3479 20.312 84.6039 19.408 84.8919 18.464C85.1959 17.52 85.5319 16.576 85.8999 15.632C86.2199 14.784 86.5879 13.928 87.0039 13.064C87.4359 12.2 87.8999 11.352 88.3959 10.52C88.8919 9.688 89.4039 8.896 89.9319 8.144C90.4759 7.392 91.0199 6.704 91.5639 6.08C91.8199 6.08 92.0919 6.112 92.3799 6.176C92.6839 6.24 92.9719 6.328 93.2439 6.44C93.5319 6.536 93.7879 6.656 94.0119 6.8C94.2519 6.944 94.4439 7.088 94.5879 7.232C93.3879 8.464 92.3079 9.712 91.3479 10.976C90.3879 12.224 89.6279 13.4 89.0679 14.504C88.7639 15.112 88.4839 15.68 88.2279 16.208C87.9879 16.736 87.7639 17.264 87.5559 17.792C87.3479 18.304 87.1559 18.824 86.9799 19.352C86.8199 19.864 86.6679 20.408 86.5239 20.984C89.5959 17.064 91.8759 15.104 93.3639 15.104C93.7799 15.104 94.2279 15.24 94.7079 15.512C95.1879 15.784 95.6119 16.152 95.9799 16.616C95.4839 17.16 94.9719 17.816 94.4439 18.584C93.9159 19.352 93.4279 20.128 92.9799 20.912C92.5479 21.68 92.1879 22.4 91.8999 23.072C91.6279 23.728 91.4919 24.216 91.4919 24.536C91.4919 24.696 91.5159 24.808 91.5639 24.872C91.6119 24.92 91.7159 24.944 91.8759 24.944C92.1159 24.944 92.3079 24.912 92.4519 24.848C92.5959 24.784 92.6839 24.752 92.7159 24.752C92.7959 24.88 92.8439 24.968 92.8599 25.016C92.8759 25.064 92.8839 25.104 92.8839 25.136C92.8839 25.2 92.7879 25.296 92.5959 25.424C92.4039 25.536 92.1719 25.656 91.8999 25.784C91.6439 25.896 91.3879 26 91.1319 26.096C90.8759 26.192 90.6839 26.24 90.5559 26.24C90.3959 26.24 90.2359 26.192 90.0759 26.096C89.9159 26.016 89.7719 25.904 89.6439 25.76C89.5319 25.616 89.4359 25.456 89.3559 25.28C89.2919 25.104 89.2599 24.92 89.2599 24.728C89.2599 24.488 89.3239 24.136 89.4519 23.672C89.5959 23.192 89.7879 22.64 90.0279 22.016C90.2679 21.376 90.5559 20.68 90.8919 19.928C91.2279 19.176 91.5879 18.408 91.9719 17.624C91.9719 17.56 91.9399 17.528 91.8759 17.528C91.8279 17.528 91.6999 17.592 91.4919 17.72C91.2999 17.848 91.1159 17.976 90.9399 18.104C90.3639 18.536 89.7799 19.072 89.1879 19.712C88.6119 20.336 88.0439 21.024 87.4839 21.776C86.9399 22.528 86.4199 23.328 85.9239 24.176C85.4439 25.008 85.0279 25.848 84.6759 26.696C84.6279 26.808 84.5559 26.912 84.4599 27.008C84.3639 27.104 84.2839 27.152 84.2199 27.152C84.1719 27.152 84.0999 27.096 84.0039 26.984C83.9239 26.872 83.8439 26.728 83.7639 26.552C83.6999 26.392 83.6359 26.224 83.5719 26.048C83.5079 25.872 83.4759 25.72 83.4759 25.592ZM98.7303 26.84C97.8183 26.744 97.0903 26.344 96.5463 25.64C96.0023 24.936 95.7303 24.04 95.7303 22.952C95.7303 22.312 95.8263 21.648 96.0183 20.96C96.2103 20.272 96.4823 19.608 96.8343 18.968C97.1863 18.312 97.6023 17.696 98.0823 17.12C98.5623 16.544 99.0823 16.048 99.6423 15.632C100.522 14.976 101.346 14.648 102.114 14.648C102.626 14.92 103.13 15.488 103.626 16.352C103.706 16.352 103.778 16.352 103.842 16.352C103.906 16.336 103.978 16.328 104.058 16.328C104.906 16.328 105.33 17.08 105.33 18.584C105.33 19.592 105.162 20.552 104.826 21.464C104.506 22.36 104.05 23.176 103.458 23.912C102.882 24.648 102.186 25.272 101.37 25.784C100.57 26.28 99.6903 26.632 98.7303 26.84ZM99.9543 19.28C99.6823 19.648 99.4263 20.048 99.1863 20.48C98.9463 20.912 98.7383 21.352 98.5623 21.8C98.3863 22.232 98.2503 22.656 98.1543 23.072C98.0583 23.472 98.0103 23.832 98.0103 24.152C98.0103 24.536 98.0743 24.904 98.2023 25.256C98.3303 25.608 98.4743 25.808 98.6343 25.856C99.3543 25.696 100.01 25.4 100.602 24.968C101.21 24.52 101.73 23.968 102.162 23.312C102.61 22.656 102.954 21.912 103.194 21.08C103.45 20.248 103.578 19.36 103.578 18.416C103.578 18 103.554 17.672 103.506 17.432C103.458 17.192 103.378 16.984 103.266 16.808C102.562 17.016 101.93 17.352 101.37 17.816C100.826 18.28 100.354 18.768 99.9543 19.28ZM112.427 25.016C112.427 24.696 112.459 24.248 112.523 23.672C112.603 23.096 112.699 22.472 112.811 21.8C112.939 21.128 113.075 20.44 113.219 19.736C113.379 19.032 113.539 18.4 113.699 17.84C113.907 17.088 114.227 16.512 114.659 16.112C115.107 15.696 115.659 15.488 116.315 15.488C116.667 15.488 117.011 15.544 117.347 15.656C117.699 15.768 117.907 15.912 117.971 16.088C117.507 16.472 117.131 16.952 116.843 17.528C116.571 18.088 116.347 18.696 116.171 19.352C116.011 19.992 115.883 20.656 115.787 21.344C115.707 22.016 115.619 22.648 115.523 23.24C116.051 22.536 116.547 21.904 117.011 21.344C117.491 20.768 117.915 20.312 118.283 19.976C118.779 19.512 119.115 19.128 119.291 18.824C119.467 18.504 119.619 18.16 119.747 17.792C119.843 17.504 119.955 17.168 120.083 16.784C120.227 16.4 120.459 16.048 120.779 15.728C120.843 15.712 120.979 15.704 121.187 15.704C121.347 15.704 121.515 15.712 121.691 15.728C121.883 15.744 122.059 15.776 122.219 15.824C122.379 15.872 122.515 15.928 122.627 15.992C122.739 16.056 122.803 16.136 122.819 16.232C122.563 16.568 122.323 17.096 122.099 17.816C121.875 18.52 121.675 19.296 121.499 20.144C121.323 20.992 121.163 21.84 121.019 22.688C120.875 23.52 120.747 24.224 120.635 24.8C120.699 24.768 120.843 24.64 121.067 24.416C121.291 24.192 121.539 23.912 121.811 23.576C122.099 23.24 122.395 22.872 122.699 22.472C123.019 22.072 123.299 21.68 123.539 21.296C123.843 20.832 124.091 20.4 124.283 20C124.491 19.584 124.667 19.144 124.811 18.68C124.971 18.216 125.115 17.704 125.243 17.144C125.371 16.568 125.507 15.888 125.651 15.104C125.747 14.976 125.955 14.872 126.275 14.792C126.611 14.696 126.915 14.648 127.187 14.648C127.427 14.648 127.603 14.688 127.715 14.768C127.635 15.664 127.483 16.464 127.259 17.168C127.051 17.872 126.763 18.56 126.395 19.232C126.027 19.888 125.571 20.552 125.027 21.224C124.483 21.88 123.843 22.6 123.107 23.384C122.803 23.704 122.467 24.056 122.099 24.44C121.747 24.824 121.395 25.184 121.043 25.52C120.707 25.84 120.387 26.112 120.083 26.336C119.795 26.56 119.571 26.672 119.411 26.672C119.043 26.672 118.739 26.528 118.499 26.24C118.259 25.952 118.139 25.584 118.139 25.136C118.139 24.672 118.155 24.272 118.187 23.936C118.235 23.584 118.307 23.216 118.403 22.832C118.499 22.48 118.571 22.184 118.619 21.944C118.683 21.704 118.731 21.496 118.763 21.32C118.811 21.144 118.843 20.992 118.859 20.864C118.875 20.736 118.891 20.608 118.907 20.48C118.779 20.544 118.611 20.68 118.403 20.888C118.195 21.08 117.979 21.312 117.755 21.584C117.531 21.84 117.307 22.104 117.083 22.376C116.859 22.648 116.675 22.88 116.531 23.072C116.227 23.488 115.963 23.856 115.739 24.176C115.515 24.496 115.299 24.8 115.091 25.088C114.899 25.376 114.707 25.672 114.515 25.976C114.323 26.264 114.099 26.576 113.843 26.912C113.331 26.752 112.963 26.512 112.739 26.192C112.531 25.872 112.427 25.48 112.427 25.016ZM136.037 16.064C135.973 17.056 135.797 17.912 135.509 18.632C135.221 19.336 134.805 19.96 134.261 20.504C133.733 21.032 133.085 21.512 132.317 21.944C131.549 22.376 130.653 22.792 129.629 23.192C129.629 23.288 129.621 23.392 129.605 23.504C129.605 23.6 129.605 23.704 129.605 23.816C129.605 24.024 129.621 24.24 129.653 24.464C129.685 24.688 129.741 24.896 129.821 25.088C129.901 25.28 130.013 25.44 130.157 25.568C130.301 25.68 130.485 25.736 130.709 25.736C131.141 25.736 131.565 25.64 131.981 25.448C132.397 25.256 132.789 25.024 133.157 24.752C133.541 24.464 133.893 24.16 134.213 23.84C134.549 23.504 134.845 23.2 135.101 22.928C135.261 23.072 135.397 23.208 135.509 23.336C134.789 24.296 133.997 25.096 133.133 25.736C132.285 26.36 131.477 26.76 130.709 26.936C129.605 26.808 128.741 26.408 128.117 25.736C127.509 25.048 127.205 24.224 127.205 23.264C127.205 22.608 127.293 21.944 127.469 21.272C127.661 20.584 127.917 19.928 128.237 19.304C128.573 18.664 128.957 18.064 129.389 17.504C129.837 16.944 130.309 16.456 130.805 16.04C131.317 15.624 131.837 15.296 132.365 15.056C132.909 14.816 133.445 14.696 133.973 14.696C134.709 14.792 135.397 15.248 136.037 16.064ZM134.381 16.856C133.949 16.92 133.501 17.096 133.037 17.384C132.573 17.672 132.133 18.056 131.717 18.536C131.317 19.016 130.949 19.576 130.613 20.216C130.277 20.856 130.013 21.544 129.821 22.28C131.101 21.64 132.165 20.856 133.013 19.928C133.861 18.984 134.317 17.96 134.381 16.856ZM151.147 16.304C151.307 16.304 151.491 16.336 151.699 16.4C151.923 16.448 152.123 16.52 152.299 16.616C152.475 16.696 152.619 16.784 152.731 16.88C152.859 16.976 152.923 17.064 152.923 17.144C152.603 17.816 152.307 18.496 152.035 19.184C151.763 19.856 151.531 20.504 151.339 21.128C151.147 21.752 150.995 22.336 150.883 22.88C150.787 23.424 150.739 23.896 150.739 24.296C150.739 24.744 150.787 25.12 150.883 25.424C150.979 25.712 151.139 25.92 151.363 26.048C151.171 26.176 150.923 26.28 150.619 26.36C150.315 26.44 150.043 26.48 149.803 26.48C148.939 26.48 148.507 25.888 148.507 24.704C148.507 23.792 148.811 22.544 149.419 20.96C149.099 21.696 148.731 22.392 148.315 23.048C147.899 23.688 147.475 24.256 147.043 24.752C146.611 25.248 146.171 25.656 145.723 25.976C145.291 26.28 144.891 26.464 144.523 26.528C143.931 26.496 143.451 26.216 143.083 25.688C142.715 25.144 142.531 24.456 142.531 23.624C142.531 22.728 142.723 21.784 143.107 20.792C143.491 19.8 143.979 18.88 144.571 18.032C145.179 17.184 145.835 16.48 146.539 15.92C147.243 15.344 147.923 15.04 148.579 15.008C148.739 15.056 148.915 15.152 149.107 15.296C149.315 15.44 149.507 15.608 149.683 15.8C149.875 15.992 150.035 16.192 150.163 16.4C150.291 16.592 150.363 16.76 150.379 16.904C149.739 17 149.075 17.312 148.387 17.84C147.715 18.368 147.099 19.008 146.539 19.76C145.995 20.496 145.547 21.288 145.195 22.136C144.843 22.984 144.667 23.776 144.667 24.512C144.667 24.816 144.779 25.008 145.003 25.088C145.467 24.992 146.003 24.6 146.611 23.912C147.219 23.208 147.955 22.128 148.819 20.672C148.979 20.384 149.155 20.064 149.347 19.712C149.555 19.36 149.763 18.992 149.971 18.608C150.179 18.224 150.379 17.84 150.571 17.456C150.779 17.056 150.971 16.672 151.147 16.304ZM153.565 25.52C153.645 25.056 153.781 24.448 153.973 23.696C154.181 22.928 154.421 22.12 154.693 21.272C154.965 20.408 155.253 19.544 155.557 18.68C155.861 17.816 156.157 17.04 156.445 16.352C156.653 15.856 156.837 15.472 156.997 15.2C157.157 14.912 157.333 14.672 157.525 14.48C157.749 14.512 157.981 14.568 158.221 14.648C158.461 14.728 158.693 14.824 158.917 14.936C159.141 15.048 159.341 15.168 159.517 15.296C159.693 15.408 159.829 15.52 159.925 15.632C159.493 16.144 159.109 16.728 158.773 17.384C158.453 18.04 158.125 18.88 157.789 19.904C158.653 19.136 159.413 18.4 160.069 17.696C160.741 16.992 161.365 16.208 161.941 15.344C162.037 15.264 162.205 15.224 162.445 15.224C162.669 15.224 162.885 15.264 163.093 15.344C163.301 15.408 163.445 15.504 163.525 15.632C163.237 16.4 163.093 17.16 163.093 17.912C163.093 18.616 163.197 19.144 163.405 19.496C163.389 19.592 163.277 19.776 163.069 20.048C162.877 20.32 162.661 20.576 162.421 20.816C161.989 20.592 161.605 20.288 161.269 19.904C160.933 19.504 160.685 19.072 160.525 18.608C159.773 19.136 159.133 19.656 158.605 20.168C158.077 20.664 157.621 21.224 157.237 21.848C156.869 22.456 156.549 23.16 156.277 23.96C156.021 24.76 155.773 25.712 155.533 26.816C155.389 26.8 155.213 26.744 155.005 26.648C154.813 26.568 154.613 26.464 154.405 26.336C154.213 26.208 154.037 26.072 153.877 25.928C153.717 25.784 153.613 25.648 153.565 25.52ZM172.412 16.064C172.348 17.056 172.172 17.912 171.884 18.632C171.596 19.336 171.18 19.96 170.636 20.504C170.108 21.032 169.46 21.512 168.692 21.944C167.924 22.376 167.028 22.792 166.004 23.192C166.004 23.288 165.996 23.392 165.98 23.504C165.98 23.6 165.98 23.704 165.98 23.816C165.98 24.024 165.996 24.24 166.028 24.464C166.06 24.688 166.116 24.896 166.196 25.088C166.276 25.28 166.388 25.44 166.532 25.568C166.676 25.68 166.86 25.736 167.084 25.736C167.516 25.736 167.94 25.64 168.356 25.448C168.772 25.256 169.164 25.024 169.532 24.752C169.916 24.464 170.268 24.16 170.588 23.84C170.924 23.504 171.22 23.2 171.476 22.928C171.636 23.072 171.772 23.208 171.884 23.336C171.164 24.296 170.372 25.096 169.508 25.736C168.66 26.36 167.852 26.76 167.084 26.936C165.98 26.808 165.116 26.408 164.492 25.736C163.884 25.048 163.58 24.224 163.58 23.264C163.58 22.608 163.668 21.944 163.844 21.272C164.036 20.584 164.292 19.928 164.612 19.304C164.948 18.664 165.332 18.064 165.764 17.504C166.212 16.944 166.684 16.456 167.18 16.04C167.692 15.624 168.212 15.296 168.74 15.056C169.284 14.816 169.82 14.696 170.348 14.696C171.084 14.792 171.772 15.248 172.412 16.064ZM170.756 16.856C170.324 16.92 169.876 17.096 169.412 17.384C168.948 17.672 168.508 18.056 168.092 18.536C167.692 19.016 167.324 19.576 166.988 20.216C166.652 20.856 166.388 21.544 166.196 22.28C167.476 21.64 168.54 20.856 169.388 19.928C170.236 18.984 170.692 17.96 170.756 16.856Z" fill="#333333"/>
<rect x="86" y="125" width="60" height="4" fill="#F38181"/>
</svg>
