<svg width="276" height="136" viewBox="0 0 276 136" fill="none" xmlns="http://www.w3.org/2000/svg">
<path d="M79.496 26.744C79.416 26.088 79.352 25.376 79.304 24.608C79.272 23.824 79.256 23.096 79.256 22.424C79.256 21.352 79.288 20.328 79.352 19.352C79.432 18.36 79.52 17.328 79.616 16.256C79.728 15.168 79.848 13.992 79.976 12.728C80.104 11.448 80.216 9.976 80.312 8.312C80.52 8.312 80.816 8.376 81.2 8.504C81.6 8.616 82 8.752 82.4 8.912C82.8 9.072 83.152 9.24 83.456 9.416C83.76 9.576 83.936 9.712 83.984 9.824C83.712 10.448 83.464 11.272 83.24 12.296C83.032 13.304 82.856 14.408 82.712 15.608C82.568 16.808 82.456 18.04 82.376 19.304C82.296 20.568 82.256 21.752 82.256 22.856C82.256 23.368 82.264 23.872 82.28 24.368C82.296 24.864 82.32 25.32 82.352 25.736C82.688 25.24 83.072 24.536 83.504 23.624C83.952 22.696 84.408 21.664 84.872 20.528C85.352 19.392 85.824 18.208 86.288 16.976C86.768 15.728 87.208 14.544 87.608 13.424C88.008 12.288 88.344 11.272 88.616 10.376C88.904 9.464 89.104 8.776 89.216 8.312C89.424 8.312 89.728 8.376 90.128 8.504C90.544 8.616 90.944 8.752 91.328 8.912C91.728 9.072 92.08 9.24 92.384 9.416C92.688 9.576 92.856 9.712 92.888 9.824C92.616 10.448 92.368 11.272 92.144 12.296C91.936 13.304 91.76 14.408 91.616 15.608C91.472 16.808 91.36 18.04 91.28 19.304C91.2 20.568 91.16 21.752 91.16 22.856C91.16 23.32 91.16 23.784 91.16 24.248C91.176 24.696 91.2 25.104 91.232 25.472C91.744 24.144 92.272 22.832 92.816 21.536C93.376 20.224 93.928 18.976 94.472 17.792C95.016 16.592 95.544 15.48 96.056 14.456C96.568 13.416 97.04 12.496 97.472 11.696C97.904 10.88 98.28 10.208 98.6 9.68C98.92 9.152 99.168 8.8 99.344 8.624C99.712 8.672 100.088 8.808 100.472 9.032C100.872 9.24 101.224 9.512 101.528 9.848C101.064 10.216 100.536 10.824 99.944 11.672C99.352 12.504 98.744 13.472 98.12 14.576C97.496 15.68 96.864 16.856 96.224 18.104C95.6 19.352 95.016 20.568 94.472 21.752C93.928 22.936 93.44 24.04 93.008 25.064C92.592 26.088 92.272 26.912 92.048 27.536C91.632 27.728 91.224 27.824 90.824 27.824C90.312 27.76 89.824 27.632 89.36 27.44C88.912 27.248 88.592 27.016 88.4 26.744C88.352 26.488 88.312 26.192 88.28 25.856C88.248 25.504 88.224 25.16 88.208 24.824C88.192 24.488 88.176 24.168 88.16 23.864C88.16 23.544 88.16 23.272 88.16 23.048C88.16 21.624 88.216 20.176 88.328 18.704C88.44 17.216 88.576 15.624 88.736 13.928C88.368 15.016 87.96 16.184 87.512 17.432C87.064 18.68 86.592 19.92 86.096 21.152C85.616 22.368 85.12 23.536 84.608 24.656C84.112 25.76 83.624 26.72 83.144 27.536C82.728 27.728 82.32 27.824 81.92 27.824C81.408 27.76 80.92 27.632 80.456 27.44C80.008 27.248 79.688 27.016 79.496 26.744ZM106.623 16.064C106.559 17.056 106.383 17.912 106.095 18.632C105.807 19.336 105.391 19.96 104.847 20.504C104.319 21.032 103.671 21.512 102.903 21.944C102.135 22.376 101.239 22.792 100.215 23.192C100.215 23.288 100.207 23.392 100.191 23.504C100.191 23.6 100.191 23.704 100.191 23.816C100.191 24.024 100.207 24.24 100.239 24.464C100.271 24.688 100.327 24.896 100.407 25.088C100.487 25.28 100.599 25.44 100.743 25.568C100.887 25.68 101.071 25.736 101.295 25.736C101.727 25.736 102.151 25.64 102.567 25.448C102.983 25.256 103.375 25.024 103.743 24.752C104.127 24.464 104.479 24.16 104.799 23.84C105.135 23.504 105.431 23.2 105.687 22.928C105.847 23.072 105.983 23.208 106.095 23.336C105.375 24.296 104.583 25.096 103.719 25.736C102.871 26.36 102.063 26.76 101.295 26.936C100.191 26.808 99.3271 26.408 98.7031 25.736C98.0951 25.048 97.7911 24.224 97.7911 23.264C97.7911 22.608 97.8791 21.944 98.0551 21.272C98.2471 20.584 98.5031 19.928 98.8231 19.304C99.1591 18.664 99.5431 18.064 99.9751 17.504C100.423 16.944 100.895 16.456 101.391 16.04C101.903 15.624 102.423 15.296 102.951 15.056C103.495 14.816 104.031 14.696 104.559 14.696C105.295 14.792 105.983 15.248 106.623 16.064ZM104.967 16.856C104.535 16.92 104.087 17.096 103.623 17.384C103.159 17.672 102.719 18.056 102.303 18.536C101.903 19.016 101.535 19.576 101.199 20.216C100.863 20.856 100.599 21.544 100.407 22.28C101.687 21.64 102.751 20.856 103.599 19.928C104.447 18.984 104.903 17.96 104.967 16.856ZM113.669 25.016C113.669 24.696 113.701 24.248 113.765 23.672C113.845 23.096 113.941 22.472 114.053 21.8C114.181 21.128 114.317 20.44 114.461 19.736C114.621 19.032 114.781 18.4 114.941 17.84C115.149 17.088 115.469 16.512 115.901 16.112C116.349 15.696 116.901 15.488 117.557 15.488C117.909 15.488 118.253 15.544 118.589 15.656C118.941 15.768 119.149 15.912 119.213 16.088C118.749 16.472 118.373 16.952 118.085 17.528C117.813 18.088 117.589 18.696 117.413 19.352C117.253 19.992 117.125 20.656 117.029 21.344C116.949 22.016 116.861 22.648 116.765 23.24C117.293 22.536 117.789 21.904 118.253 21.344C118.733 20.768 119.157 20.312 119.525 19.976C120.021 19.512 120.357 19.128 120.533 18.824C120.709 18.504 120.861 18.16 120.989 17.792C121.085 17.504 121.197 17.168 121.325 16.784C121.469 16.4 121.701 16.048 122.021 15.728C122.085 15.712 122.221 15.704 122.429 15.704C122.589 15.704 122.757 15.712 122.933 15.728C123.125 15.744 123.301 15.776 123.461 15.824C123.621 15.872 123.757 15.928 123.869 15.992C123.981 16.056 124.045 16.136 124.061 16.232C123.805 16.568 123.565 17.096 123.341 17.816C123.117 18.52 122.917 19.296 122.741 20.144C122.565 20.992 122.405 21.84 122.261 22.688C122.117 23.52 121.989 24.224 121.877 24.8C121.941 24.768 122.085 24.64 122.309 24.416C122.533 24.192 122.781 23.912 123.053 23.576C123.341 23.24 123.637 22.872 123.941 22.472C124.261 22.072 124.541 21.68 124.781 21.296C125.085 20.832 125.333 20.4 125.525 20C125.733 19.584 125.909 19.144 126.053 18.68C126.213 18.216 126.357 17.704 126.485 17.144C126.613 16.568 126.749 15.888 126.893 15.104C126.989 14.976 127.197 14.872 127.517 14.792C127.853 14.696 128.157 14.648 128.429 14.648C128.669 14.648 128.845 14.688 128.957 14.768C128.877 15.664 128.725 16.464 128.501 17.168C128.293 17.872 128.005 18.56 127.637 19.232C127.269 19.888 126.813 20.552 126.269 21.224C125.725 21.88 125.085 22.6 124.349 23.384C124.045 23.704 123.709 24.056 123.341 24.44C122.989 24.824 122.637 25.184 122.285 25.52C121.949 25.84 121.629 26.112 121.325 26.336C121.037 26.56 120.813 26.672 120.653 26.672C120.285 26.672 119.981 26.528 119.741 26.24C119.501 25.952 119.381 25.584 119.381 25.136C119.381 24.672 119.397 24.272 119.429 23.936C119.477 23.584 119.549 23.216 119.645 22.832C119.741 22.48 119.813 22.184 119.861 21.944C119.925 21.704 119.973 21.496 120.005 21.32C120.053 21.144 120.085 20.992 120.101 20.864C120.117 20.736 120.133 20.608 120.149 20.48C120.021 20.544 119.853 20.68 119.645 20.888C119.437 21.08 119.221 21.312 118.997 21.584C118.773 21.84 118.549 22.104 118.325 22.376C118.101 22.648 117.917 22.88 117.773 23.072C117.469 23.488 117.205 23.856 116.981 24.176C116.757 24.496 116.541 24.8 116.333 25.088C116.141 25.376 115.949 25.672 115.757 25.976C115.565 26.264 115.341 26.576 115.085 26.912C114.573 26.752 114.205 26.512 113.981 26.192C113.773 25.872 113.669 25.48 113.669 25.016ZM131.519 26.84C130.607 26.744 129.879 26.344 129.335 25.64C128.791 24.936 128.519 24.04 128.519 22.952C128.519 22.312 128.615 21.648 128.807 20.96C128.999 20.272 129.271 19.608 129.623 18.968C129.975 18.312 130.391 17.696 130.871 17.12C131.351 16.544 131.871 16.048 132.431 15.632C133.311 14.976 134.135 14.648 134.903 14.648C135.415 14.92 135.919 15.488 136.415 16.352C136.495 16.352 136.567 16.352 136.631 16.352C136.695 16.336 136.767 16.328 136.847 16.328C137.695 16.328 138.119 17.08 138.119 18.584C138.119 19.592 137.951 20.552 137.615 21.464C137.295 22.36 136.839 23.176 136.247 23.912C135.671 24.648 134.975 25.272 134.159 25.784C133.359 26.28 132.479 26.632 131.519 26.84ZM132.743 19.28C132.471 19.648 132.215 20.048 131.975 20.48C131.735 20.912 131.527 21.352 131.351 21.8C131.175 22.232 131.039 22.656 130.943 23.072C130.847 23.472 130.799 23.832 130.799 24.152C130.799 24.536 130.863 24.904 130.991 25.256C131.119 25.608 131.263 25.808 131.423 25.856C132.143 25.696 132.799 25.4 133.391 24.968C133.999 24.52 134.519 23.968 134.951 23.312C135.399 22.656 135.743 21.912 135.983 21.08C136.239 20.248 136.367 19.36 136.367 18.416C136.367 18 136.343 17.672 136.295 17.432C136.247 17.192 136.167 16.984 136.055 16.808C135.351 17.016 134.719 17.352 134.159 17.816C133.615 18.28 133.143 18.768 132.743 19.28ZM138.705 25.52C138.785 25.056 138.921 24.448 139.113 23.696C139.321 22.928 139.561 22.12 139.833 21.272C140.105 20.408 140.393 19.544 140.697 18.68C141.001 17.816 141.297 17.04 141.585 16.352C141.793 15.856 141.977 15.472 142.137 15.2C142.297 14.912 142.473 14.672 142.665 14.48C142.889 14.512 143.121 14.568 143.361 14.648C143.601 14.728 143.833 14.824 144.057 14.936C144.281 15.048 144.481 15.168 144.657 15.296C144.833 15.408 144.969 15.52 145.065 15.632C144.633 16.144 144.249 16.728 143.913 17.384C143.593 18.04 143.265 18.88 142.929 19.904C143.793 19.136 144.553 18.4 145.209 17.696C145.881 16.992 146.505 16.208 147.081 15.344C147.177 15.264 147.345 15.224 147.585 15.224C147.809 15.224 148.025 15.264 148.233 15.344C148.441 15.408 148.585 15.504 148.665 15.632C148.377 16.4 148.233 17.16 148.233 17.912C148.233 18.616 148.337 19.144 148.545 19.496C148.529 19.592 148.417 19.776 148.209 20.048C148.017 20.32 147.801 20.576 147.561 20.816C147.129 20.592 146.745 20.288 146.409 19.904C146.073 19.504 145.825 19.072 145.665 18.608C144.913 19.136 144.273 19.656 143.745 20.168C143.217 20.664 142.761 21.224 142.377 21.848C142.009 22.456 141.689 23.16 141.417 23.96C141.161 24.76 140.913 25.712 140.673 26.816C140.529 26.8 140.353 26.744 140.145 26.648C139.953 26.568 139.753 26.464 139.545 26.336C139.353 26.208 139.177 26.072 139.017 25.928C138.857 25.784 138.753 25.648 138.705 25.52ZM149.009 23.744C149.009 23.168 149.153 22.368 149.441 21.344C149.745 20.32 150.137 19.2 150.617 17.984C151.097 16.768 151.641 15.512 152.249 14.216C152.857 12.92 153.465 11.712 154.073 10.592C154.697 9.472 155.289 8.504 155.849 7.688C156.425 6.872 156.913 6.32 157.313 6.032C157.537 6.048 157.777 6.144 158.033 6.32C158.305 6.496 158.553 6.712 158.777 6.968C159.001 7.208 159.185 7.464 159.329 7.736C159.489 8.008 159.569 8.256 159.569 8.48C158.849 9.056 158.113 9.8 157.361 10.712C156.625 11.608 155.921 12.6 155.249 13.688C154.577 14.76 153.953 15.904 153.377 17.12C152.817 18.32 152.345 19.504 151.961 20.672C152.473 19.792 153.009 18.992 153.569 18.272C154.129 17.552 154.689 16.936 155.249 16.424C155.809 15.912 156.353 15.52 156.881 15.248C157.425 14.96 157.937 14.808 158.417 14.792C159.121 15.304 159.473 15.984 159.473 16.832C159.473 17.344 159.369 17.864 159.161 18.392C158.953 18.904 158.673 19.384 158.321 19.832C157.985 20.264 157.593 20.64 157.145 20.96C156.713 21.264 156.257 21.464 155.777 21.56C155.937 22.12 156.137 22.688 156.377 23.264C156.633 23.84 156.929 24.4 157.265 24.944C157.617 25.488 158.009 25.992 158.441 26.456C158.889 26.92 159.393 27.312 159.953 27.632C159.873 27.792 159.753 27.952 159.593 28.112C159.433 28.272 159.241 28.408 159.017 28.52C158.793 28.648 158.545 28.744 158.273 28.808C158.017 28.888 157.761 28.928 157.505 28.928C157.073 28.928 156.665 28.712 156.281 28.28C155.913 27.848 155.577 27.224 155.273 26.408C155.033 25.752 154.801 24.968 154.577 24.056C154.353 23.144 154.153 22.192 153.977 21.2C154.201 21.056 154.481 20.848 154.817 20.576C155.153 20.288 155.505 19.96 155.873 19.592C157.281 18.232 157.985 17.056 157.985 16.064C157.985 15.936 157.897 15.872 157.721 15.872C157.401 15.888 157.025 16.04 156.593 16.328C156.161 16.616 155.697 17.016 155.201 17.528C154.721 18.04 154.225 18.64 153.713 19.328C153.217 20.016 152.737 20.76 152.273 21.56C152.081 21.88 151.905 22.248 151.745 22.664C151.585 23.08 151.441 23.512 151.313 23.96C151.201 24.392 151.113 24.824 151.049 25.256C150.985 25.688 150.953 26.088 150.953 26.456C150.953 26.68 150.977 26.864 151.025 27.008C150.529 26.96 150.225 26.832 150.113 26.624C149.985 26.432 149.873 26.272 149.777 26.144C149.697 26.032 149.609 25.936 149.513 25.856C149.369 25.744 149.249 25.504 149.153 25.136C149.057 24.768 149.009 24.304 149.009 23.744ZM167.271 25.016C167.271 24.696 167.303 24.248 167.367 23.672C167.447 23.096 167.543 22.472 167.655 21.8C167.783 21.128 167.919 20.44 168.063 19.736C168.223 19.032 168.383 18.4 168.543 17.84C168.751 17.088 169.071 16.512 169.503 16.112C169.951 15.696 170.503 15.488 171.159 15.488C171.511 15.488 171.855 15.544 172.191 15.656C172.543 15.768 172.751 15.912 172.815 16.088C172.351 16.472 171.975 16.952 171.687 17.528C171.415 18.088 171.191 18.696 171.015 19.352C170.855 19.992 170.727 20.656 170.631 21.344C170.551 22.016 170.463 22.648 170.367 23.24C170.895 22.536 171.391 21.904 171.855 21.344C172.335 20.768 172.759 20.312 173.127 19.976C173.623 19.512 173.959 19.128 174.135 18.824C174.311 18.504 174.463 18.16 174.591 17.792C174.687 17.504 174.799 17.168 174.927 16.784C175.071 16.4 175.303 16.048 175.623 15.728C175.687 15.712 175.823 15.704 176.031 15.704C176.191 15.704 176.359 15.712 176.535 15.728C176.727 15.744 176.903 15.776 177.063 15.824C177.223 15.872 177.359 15.928 177.471 15.992C177.583 16.056 177.647 16.136 177.663 16.232C177.407 16.568 177.167 17.096 176.943 17.816C176.719 18.52 176.519 19.296 176.343 20.144C176.167 20.992 176.007 21.84 175.863 22.688C175.719 23.52 175.591 24.224 175.479 24.8C175.543 24.768 175.687 24.64 175.911 24.416C176.135 24.192 176.383 23.912 176.655 23.576C176.943 23.24 177.239 22.872 177.543 22.472C177.863 22.072 178.143 21.68 178.383 21.296C178.687 20.832 178.935 20.4 179.127 20C179.335 19.584 179.511 19.144 179.655 18.68C179.815 18.216 179.959 17.704 180.087 17.144C180.215 16.568 180.351 15.888 180.495 15.104C180.591 14.976 180.799 14.872 181.119 14.792C181.455 14.696 181.759 14.648 182.031 14.648C182.271 14.648 182.447 14.688 182.559 14.768C182.479 15.664 182.327 16.464 182.103 17.168C181.895 17.872 181.607 18.56 181.239 19.232C180.871 19.888 180.415 20.552 179.871 21.224C179.327 21.88 178.687 22.6 177.951 23.384C177.647 23.704 177.311 24.056 176.943 24.44C176.591 24.824 176.239 25.184 175.887 25.52C175.551 25.84 175.231 26.112 174.927 26.336C174.639 26.56 174.415 26.672 174.255 26.672C173.887 26.672 173.583 26.528 173.343 26.24C173.103 25.952 172.983 25.584 172.983 25.136C172.983 24.672 172.999 24.272 173.031 23.936C173.079 23.584 173.151 23.216 173.247 22.832C173.343 22.48 173.415 22.184 173.463 21.944C173.527 21.704 173.575 21.496 173.607 21.32C173.655 21.144 173.687 20.992 173.703 20.864C173.719 20.736 173.735 20.608 173.751 20.48C173.623 20.544 173.455 20.68 173.247 20.888C173.039 21.08 172.823 21.312 172.599 21.584C172.375 21.84 172.151 22.104 171.927 22.376C171.703 22.648 171.519 22.88 171.375 23.072C171.071 23.488 170.807 23.856 170.583 24.176C170.359 24.496 170.143 24.8 169.935 25.088C169.743 25.376 169.551 25.672 169.359 25.976C169.167 26.264 168.943 26.576 168.687 26.912C168.175 26.752 167.807 26.512 167.583 26.192C167.375 25.872 167.271 25.48 167.271 25.016ZM182.313 24.392C182.313 24.248 182.321 24.072 182.337 23.864C182.369 23.64 182.417 23.352 182.481 23C182.545 22.632 182.625 22.192 182.721 21.68C182.833 21.168 182.969 20.552 183.129 19.832C183.161 19.672 183.233 19.416 183.345 19.064C183.457 18.712 183.601 18.344 183.777 17.96C183.969 17.56 184.193 17.176 184.449 16.808C184.721 16.44 185.041 16.168 185.409 15.992C185.681 16.056 186.041 16.224 186.489 16.496C186.937 16.752 187.321 17.112 187.641 17.576C187.273 17.992 186.961 18.408 186.705 18.824C186.465 19.24 186.241 19.672 186.033 20.12C185.841 20.568 185.657 21.032 185.481 21.512C185.321 21.992 185.137 22.496 184.929 23.024C184.753 23.472 184.593 23.936 184.449 24.416C184.305 24.88 184.225 25.288 184.209 25.64C184.209 25.928 184.201 26.128 184.185 26.24C184.185 26.368 184.145 26.432 184.065 26.432C184.001 26.432 183.873 26.392 183.681 26.312C183.489 26.232 183.289 26.112 183.081 25.952C182.889 25.776 182.713 25.56 182.553 25.304C182.393 25.048 182.313 24.744 182.313 24.392ZM186.897 13.976C186.897 13.88 186.921 13.736 186.969 13.544C186.889 13.464 186.817 13.344 186.753 13.184C186.705 13.024 186.681 12.88 186.681 12.752C186.681 12.608 186.697 12.416 186.729 12.176C186.777 11.92 186.833 11.648 186.897 11.36C186.961 11.072 187.041 10.776 187.137 10.472C187.233 10.152 187.329 9.864 187.425 9.608C187.617 9.608 187.849 9.664 188.121 9.776C188.409 9.872 188.697 10.008 188.985 10.184C189.273 10.344 189.537 10.528 189.777 10.736C190.017 10.928 190.201 11.112 190.329 11.288C190.153 11.464 189.921 11.712 189.633 12.032C189.345 12.336 189.065 12.664 188.793 13.016C188.521 13.352 188.273 13.672 188.049 13.976C187.825 14.28 187.681 14.496 187.617 14.624C187.425 14.592 187.257 14.512 187.113 14.384C186.969 14.24 186.897 14.104 186.897 13.976ZM189.213 16.808C189.133 16.712 189.061 16.512 188.997 16.208C188.933 15.888 188.901 15.616 188.901 15.392C189.317 15.424 189.717 15.456 190.101 15.488C190.485 15.504 190.837 15.52 191.157 15.536C191.397 15.056 191.653 14.584 191.925 14.12C192.213 13.64 192.485 13.208 192.741 12.824C193.013 12.424 193.261 12.088 193.485 11.816C193.725 11.544 193.909 11.368 194.037 11.288C194.197 11.288 194.397 11.32 194.637 11.384C194.893 11.432 195.149 11.504 195.405 11.6C195.661 11.68 195.893 11.768 196.101 11.864C196.309 11.96 196.453 12.056 196.533 12.152C196.053 12.76 195.637 13.328 195.285 13.856C194.949 14.368 194.581 14.96 194.181 15.632C194.501 15.632 194.821 15.624 195.141 15.608C195.477 15.592 195.813 15.568 196.149 15.536C196.229 15.616 196.293 15.72 196.341 15.848C196.389 15.96 196.413 16.08 196.413 16.208C195.629 16.496 194.677 16.656 193.557 16.688C193.157 17.456 192.797 18.224 192.477 18.992C192.173 19.744 191.909 20.472 191.685 21.176C191.477 21.88 191.309 22.544 191.181 23.168C191.069 23.792 191.013 24.352 191.013 24.848C191.013 25.552 191.277 25.944 191.805 26.024C192.285 25.96 192.741 25.84 193.173 25.664C193.605 25.488 193.989 25.264 194.325 24.992C194.421 25.136 194.477 25.256 194.493 25.352C194.397 25.496 194.229 25.664 193.989 25.856C193.765 26.048 193.517 26.232 193.245 26.408C192.973 26.6 192.709 26.76 192.453 26.888C192.197 27.016 192.005 27.088 191.877 27.104C191.477 27.088 191.077 27 190.677 26.84C190.277 26.68 189.909 26.48 189.573 26.24C189.253 26 188.989 25.736 188.781 25.448C188.573 25.144 188.469 24.848 188.469 24.56C188.469 24.176 188.517 23.696 188.613 23.12C188.725 22.528 188.877 21.888 189.069 21.2C189.261 20.512 189.485 19.792 189.741 19.04C189.997 18.288 190.277 17.544 190.581 16.808H189.213ZM196.21 25.592C196.21 25.032 196.266 24.376 196.378 23.624C196.49 22.856 196.65 22.04 196.858 21.176C197.082 20.312 197.338 19.408 197.626 18.464C197.93 17.52 198.266 16.576 198.634 15.632C198.954 14.784 199.322 13.928 199.738 13.064C200.17 12.2 200.634 11.352 201.13 10.52C201.626 9.688 202.138 8.896 202.666 8.144C203.21 7.392 203.754 6.704 204.298 6.08C204.554 6.08 204.826 6.112 205.114 6.176C205.418 6.24 205.706 6.328 205.978 6.44C206.266 6.536 206.522 6.656 206.746 6.8C206.986 6.944 207.178 7.088 207.322 7.232C206.122 8.464 205.042 9.712 204.082 10.976C203.122 12.224 202.362 13.4 201.802 14.504C201.498 15.112 201.218 15.68 200.962 16.208C200.722 16.736 200.498 17.264 200.29 17.792C200.082 18.304 199.89 18.824 199.714 19.352C199.554 19.864 199.402 20.408 199.258 20.984C202.33 17.064 204.61 15.104 206.098 15.104C206.514 15.104 206.962 15.24 207.442 15.512C207.922 15.784 208.346 16.152 208.714 16.616C208.218 17.16 207.706 17.816 207.178 18.584C206.65 19.352 206.162 20.128 205.714 20.912C205.282 21.68 204.922 22.4 204.634 23.072C204.362 23.728 204.226 24.216 204.226 24.536C204.226 24.696 204.25 24.808 204.298 24.872C204.346 24.92 204.45 24.944 204.61 24.944C204.85 24.944 205.042 24.912 205.186 24.848C205.33 24.784 205.418 24.752 205.45 24.752C205.53 24.88 205.578 24.968 205.594 25.016C205.61 25.064 205.618 25.104 205.618 25.136C205.618 25.2 205.522 25.296 205.33 25.424C205.138 25.536 204.906 25.656 204.634 25.784C204.378 25.896 204.122 26 203.866 26.096C203.61 26.192 203.418 26.24 203.29 26.24C203.13 26.24 202.97 26.192 202.81 26.096C202.65 26.016 202.506 25.904 202.378 25.76C202.266 25.616 202.17 25.456 202.09 25.28C202.026 25.104 201.994 24.92 201.994 24.728C201.994 24.488 202.058 24.136 202.186 23.672C202.33 23.192 202.522 22.64 202.762 22.016C203.002 21.376 203.29 20.68 203.626 19.928C203.962 19.176 204.322 18.408 204.706 17.624C204.706 17.56 204.674 17.528 204.61 17.528C204.562 17.528 204.434 17.592 204.226 17.72C204.034 17.848 203.85 17.976 203.674 18.104C203.098 18.536 202.514 19.072 201.922 19.712C201.346 20.336 200.778 21.024 200.218 21.776C199.674 22.528 199.154 23.328 198.658 24.176C198.178 25.008 197.762 25.848 197.41 26.696C197.362 26.808 197.29 26.912 197.194 27.008C197.098 27.104 197.018 27.152 196.954 27.152C196.906 27.152 196.834 27.096 196.738 26.984C196.658 26.872 196.578 26.728 196.498 26.552C196.434 26.392 196.37 26.224 196.306 26.048C196.242 25.872 196.21 25.72 196.21 25.592Z" fill="#333333"/>
<path d="M14.83 80.58H6.76L5.32 84H0.73L8.47 66.75H13.15L20.92 84H16.24L14.83 80.58ZM13.39 77.16L10.81 70.92L8.2 77.16H13.39ZM38.7482 84L38.7182 74.58L34.0982 82.17H31.9682L27.3782 74.88V84H22.9682V66.75H26.9282L33.1082 76.77L39.1382 66.75H43.1282L43.1882 84H38.7482ZM59.3027 80.58H51.2327L49.7927 84H45.2027L52.9427 66.75H57.6227L65.3927 84H60.7127L59.3027 80.58ZM57.8627 77.16L55.2827 70.92L52.6727 77.16H57.8627ZM81.7809 80.31V84H66.2109V81.03L75.2709 70.44H66.4209V66.75H81.4209V69.72L72.3309 80.31H81.7809ZM84.7553 66.75H89.4953V84H84.7553V66.75ZM110.572 66.75V84H106.672L98.7217 74.49V84H94.0717V66.75H97.9717L105.922 76.29V66.75H110.572ZM126.535 75.15H130.855V82.14C129.915 82.84 128.805 83.38 127.525 83.76C126.245 84.14 124.985 84.33 123.745 84.33C121.845 84.33 120.145 83.95 118.645 83.19C117.165 82.41 116.005 81.34 115.165 79.98C114.345 78.62 113.935 77.09 113.935 75.39C113.935 73.69 114.355 72.16 115.195 70.8C116.035 69.42 117.195 68.35 118.675 67.59C120.175 66.81 121.855 66.42 123.715 66.42C127.035 66.42 129.545 67.45 131.245 69.51L128.125 72.3C126.985 70.96 125.535 70.29 123.775 70.29C122.295 70.29 121.075 70.76 120.115 71.7C119.175 72.64 118.705 73.87 118.705 75.39C118.705 76.89 119.175 78.11 120.115 79.05C121.075 79.99 122.315 80.46 123.835 80.46C124.795 80.46 125.695 80.28 126.535 79.92V75.15ZM149.196 84.33C147.796 84.33 146.426 84.16 145.086 83.82C143.766 83.48 142.706 83.03 141.906 82.47L143.556 78.96C144.336 79.48 145.246 79.89 146.286 80.19C147.326 80.49 148.386 80.64 149.466 80.64C150.466 80.64 151.186 80.51 151.626 80.25C152.086 79.97 152.316 79.6 152.316 79.14C152.316 78.62 152.036 78.24 151.476 78C150.916 77.74 150.026 77.49 148.806 77.25C147.466 76.97 146.366 76.68 145.506 76.38C144.646 76.06 143.896 75.55 143.256 74.85C142.636 74.15 142.326 73.19 142.326 71.97C142.326 70.89 142.636 69.93 143.256 69.09C143.876 68.25 144.766 67.6 145.926 67.14C147.106 66.66 148.486 66.42 150.066 66.42C151.226 66.42 152.356 66.55 153.456 66.81C154.556 67.05 155.506 67.42 156.306 67.92L154.776 71.43C153.336 70.55 151.706 70.11 149.886 70.11C148.906 70.11 148.176 70.26 147.696 70.56C147.236 70.84 147.006 71.22 147.006 71.7C147.006 72.22 147.286 72.6 147.846 72.84C148.406 73.08 149.296 73.32 150.516 73.56C151.836 73.84 152.926 74.14 153.786 74.46C154.666 74.76 155.416 75.26 156.036 75.96C156.676 76.64 156.996 77.57 156.996 78.75C156.996 79.85 156.686 80.82 156.066 81.66C155.466 82.5 154.576 83.16 153.396 83.64C152.216 84.1 150.816 84.33 149.196 84.33ZM173.88 80.37V84H159.99V66.75H173.55V70.38H164.67V73.53H172.53V76.98H164.67V80.37H173.88ZM184.983 79.38H182.073V84H177.333V66.75H185.193C187.573 66.75 189.463 67.32 190.863 68.46C192.263 69.58 192.963 71.13 192.963 73.11C192.963 74.37 192.653 75.47 192.033 76.41C191.433 77.33 190.573 78.05 189.453 78.57L193.293 84H188.193L184.983 79.38ZM188.193 73.11C188.193 72.25 187.913 71.59 187.353 71.13C186.793 70.67 185.963 70.44 184.863 70.44H182.073V75.78H184.863C185.963 75.78 186.793 75.55 187.353 75.09C187.913 74.63 188.193 73.97 188.193 73.11ZM213.89 66.75L206.39 84H201.71L194.21 66.75H199.25L204.17 78.48L209.21 66.75H213.89ZM216.093 66.75H220.833V84H216.093V66.75ZM233.78 84.33C231.96 84.33 230.32 83.95 228.86 83.19C227.4 82.41 226.25 81.34 225.41 79.98C224.57 78.62 224.15 77.09 224.15 75.39C224.15 73.69 224.57 72.16 225.41 70.8C226.25 69.42 227.4 68.35 228.86 67.59C230.32 66.81 231.96 66.42 233.78 66.42C235.44 66.42 236.87 66.67 238.07 67.17C239.29 67.67 240.34 68.47 241.22 69.57L238.16 72.36C237.02 70.98 235.62 70.29 233.96 70.29C232.5 70.29 231.29 70.76 230.33 71.7C229.39 72.64 228.92 73.87 228.92 75.39C228.92 76.39 229.13 77.28 229.55 78.06C229.99 78.82 230.59 79.41 231.35 79.83C232.13 80.25 233 80.46 233.96 80.46C235.62 80.46 237.02 79.77 238.16 78.39L241.22 81.18C240.36 82.26 239.31 83.06 238.07 83.58C236.85 84.08 235.42 84.33 233.78 84.33ZM258.079 80.37V84H244.189V66.75H257.749V70.38H248.869V73.53H256.729V76.98H248.869V80.37H258.079ZM267.263 84.33C265.863 84.33 264.493 84.16 263.153 83.82C261.833 83.48 260.773 83.03 259.973 82.47L261.623 78.96C262.403 79.48 263.313 79.89 264.353 80.19C265.393 80.49 266.453 80.64 267.533 80.64C268.533 80.64 269.253 80.51 269.693 80.25C270.153 79.97 270.383 79.6 270.383 79.14C270.383 78.62 270.103 78.24 269.543 78C268.983 77.74 268.093 77.49 266.873 77.25C265.533 76.97 264.433 76.68 263.573 76.38C262.713 76.06 261.963 75.55 261.323 74.85C260.703 74.15 260.393 73.19 260.393 71.97C260.393 70.89 260.703 69.93 261.323 69.09C261.943 68.25 262.833 67.6 263.993 67.14C265.173 66.66 266.553 66.42 268.133 66.42C269.293 66.42 270.423 66.55 271.523 66.81C272.623 67.05 273.573 67.42 274.373 67.92L272.843 71.43C271.403 70.55 269.773 70.11 267.953 70.11C266.973 70.11 266.243 70.26 265.763 70.56C265.303 70.84 265.073 71.22 265.073 71.7C265.073 72.22 265.353 72.6 265.913 72.84C266.473 73.08 267.363 73.32 268.583 73.56C269.903 73.84 270.993 74.14 271.853 74.46C272.733 74.76 273.483 75.26 274.103 75.96C274.743 76.64 275.063 77.57 275.063 78.75C275.063 79.85 274.753 80.82 274.133 81.66C273.533 82.5 272.643 83.16 271.463 83.64C270.283 84.1 268.883 84.33 267.263 84.33Z" fill="#333333"/>
<rect x="111" y="132" width="60" height="4" fill="#F38181"/>
</svg>
