<svg width="89" height="23" viewBox="0 0 89 23" fill="none" xmlns="http://www.w3.org/2000/svg">
<path d="M0.49 22V0.999999H4.51L13.45 15.82H11.32L20.11 0.999999H24.1L24.16 22H19.6L19.57 7.99H20.41L13.39 19.78H11.2L4.03 7.99H5.05V22H0.49ZM36.4923 22.24C34.7723 22.24 33.2423 21.88 31.9023 21.16C30.5823 20.44 29.5323 19.46 28.7523 18.22C27.9923 16.96 27.6123 15.53 27.6123 13.93C27.6123 12.31 27.9923 10.88 28.7523 9.64C29.5323 8.38 30.5823 7.4 31.9023 6.7C33.2423 5.98 34.7723 5.62 36.4923 5.62C38.1923 5.62 39.7123 5.98 41.0523 6.7C42.3923 7.4 43.4423 8.37 44.2023 9.61C44.9623 10.85 45.3423 12.29 45.3423 13.93C45.3423 15.53 44.9623 16.96 44.2023 18.22C43.4423 19.46 42.3923 20.44 41.0523 21.16C39.7123 21.88 38.1923 22.24 36.4923 22.24ZM36.4923 18.4C37.2723 18.4 37.9723 18.22 38.5923 17.86C39.2123 17.5 39.7023 16.99 40.0623 16.33C40.4223 15.65 40.6023 14.85 40.6023 13.93C40.6023 12.99 40.4223 12.19 40.0623 11.53C39.7023 10.87 39.2123 10.36 38.5923 10C37.9723 9.64 37.2723 9.46 36.4923 9.46C35.7123 9.46 35.0123 9.64 34.3923 10C33.7723 10.36 33.2723 10.87 32.8923 11.53C32.5323 12.19 32.3523 12.99 32.3523 13.93C32.3523 14.85 32.5323 15.65 32.8923 16.33C33.2723 16.99 33.7723 17.5 34.3923 17.86C35.0123 18.22 35.7123 18.4 36.4923 18.4ZM58.9405 22.36C57.2805 22.36 55.7505 22.1 54.3505 21.58C52.9705 21.04 51.7605 20.28 50.7205 19.3C49.7005 18.32 48.9005 17.17 48.3205 15.85C47.7605 14.53 47.4805 13.08 47.4805 11.5C47.4805 9.92 47.7605 8.47 48.3205 7.15C48.9005 5.83 49.7105 4.68 50.7505 3.7C51.7905 2.72 53.0105 1.97 54.4105 1.45C55.8105 0.909999 57.3505 0.64 59.0305 0.64C60.8905 0.64 62.5605 0.949999 64.0405 1.57C65.5405 2.19 66.8005 3.09 67.8205 4.27L64.7005 7.15C63.9405 6.35 63.1105 5.76 62.2105 5.38C61.3105 4.98 60.3305 4.78 59.2705 4.78C58.2505 4.78 57.3205 4.94 56.4805 5.26C55.6405 5.58 54.9105 6.04 54.2905 6.64C53.6905 7.24 53.2205 7.95 52.8805 8.77C52.5605 9.59 52.4005 10.5 52.4005 11.5C52.4005 12.48 52.5605 13.38 52.8805 14.2C53.2205 15.02 53.6905 15.74 54.2905 16.36C54.9105 16.96 55.6305 17.42 56.4505 17.74C57.2905 18.06 58.2105 18.22 59.2105 18.22C60.1705 18.22 61.1005 18.07 62.0005 17.77C62.9205 17.45 63.8105 16.92 64.6705 16.18L67.4305 19.69C66.2905 20.55 64.9605 21.21 63.4405 21.67C61.9405 22.13 60.4405 22.36 58.9405 22.36ZM62.9905 19.06V11.17H67.4305V19.69L62.9905 19.06ZM79.2951 22.24C77.5751 22.24 76.0451 21.88 74.7051 21.16C73.3851 20.44 72.3351 19.46 71.5551 18.22C70.7951 16.96 70.4151 15.53 70.4151 13.93C70.4151 12.31 70.7951 10.88 71.5551 9.64C72.3351 8.38 73.3851 7.4 74.7051 6.7C76.0451 5.98 77.5751 5.62 79.2951 5.62C80.9951 5.62 82.5151 5.98 83.8551 6.7C85.1951 7.4 86.2451 8.37 87.0051 9.61C87.7651 10.85 88.1451 12.29 88.1451 13.93C88.1451 15.53 87.7651 16.96 87.0051 18.22C86.2451 19.46 85.1951 20.44 83.8551 21.16C82.5151 21.88 80.9951 22.24 79.2951 22.24ZM79.2951 18.4C80.0751 18.4 80.7751 18.22 81.3951 17.86C82.0151 17.5 82.5051 16.99 82.8651 16.33C83.2251 15.65 83.4051 14.85 83.4051 13.93C83.4051 12.99 83.2251 12.19 82.8651 11.53C82.5051 10.87 82.0151 10.36 81.3951 10C80.7751 9.64 80.0751 9.46 79.2951 9.46C78.5151 9.46 77.8151 9.64 77.1951 10C76.5751 10.36 76.0751 10.87 75.6951 11.53C75.3351 12.19 75.1551 12.99 75.1551 13.93C75.1551 14.85 75.3351 15.65 75.6951 16.33C76.0751 16.99 76.5751 17.5 77.1951 17.86C77.8151 18.22 78.5151 18.4 79.2951 18.4Z" fill="#95E1D3"/>
</svg>
